<svg id="_x33_0" enable-background="new 0 0 64 64" height="512" viewBox="0 0 64 64" width="512" xmlns="http://www.w3.org/2000/svg"><path fill="#003865" d="m22 52c-4.435 0-6.616 1.257-8.709 3.295l-4.746 4.779c-.653.636-1.545.972-2.49.921-.799-.045-1.55-.372-2.115-.922-.606-.59-.94-1.373-.94-2.204 0-.832.334-1.615.94-2.205l1.734-1.713c.144.031.294.049.447.049.563 0 1.102-.224 1.5-.621l.539-.539c-.634-.173-1.224-.49-1.686-.952l-.362-.362c-.465-.464-.783-1.051-.958-1.679l-.532.532c-.398.397-.622.937-.622 1.5 0 .272.056.529.149.768l-1.604 1.583c-.996.971-1.545 2.263-1.545 3.639 0 1.375.549 2.667 1.545 3.638.911.887 2.118 1.414 3.399 1.484.099.006.198.009.296.009 1.382 0 2.718-.536 3.712-1.505l4.746-4.778c1.766-1.721 3.528-2.717 7.302-2.717 3.83 0 6.412 1.427 8.105 4.447l2 4 1.789-.895-2.022-4.041c-2.077-3.708-5.307-5.511-9.872-5.511z"/><path fill="#003865" d="m17.514 44.1c1.018 1.018 2.317 1.65 3.721 1.836l.683-2.734c.055-.216.082-.437.082-.66 0-.717-.291-1.419-.797-1.924l-3.82-3.821c-.672-.672-1.672-.945-2.583-.716l-2.736.683c.187 1.404.818 2.703 1.836 3.722z"/><path fill="#003865" d="m7.889 50.475c.59.591 1.567.688 2.258.225l6.743-4.495c-.274-.214-.541-.44-.791-.69l-3.613-3.615c-.25-.25-.476-.517-.69-.791l-4.496 6.743c-.196.294-.3.638-.3.993 0 .471.191.933.524 1.266z"/><path fill="#003865" d="m38 8.586 2-2 2 2 2-2 2 2 2-2 1 1v-4.587l-14 .001v4.586l1-1z"/><path fill="#003865" d="m18.797 35.382 3.82 3.821c.879.878 1.383 2.095 1.383 3.339 0 .388-.048.773-.142 1.146l-.546 2.186c1.644-.314 3.127-1.245 4.104-2.641l4.269-6.099c.206-.293.315-.639.315-.998 0-.465-.181-.902-.51-1.231l-8.394-8.395c-.324-.324-.773-.51-1.232-.51-.359 0-.705.108-.998.314l-6.099 4.27c-1.396.977-2.328 2.459-2.641 4.104l2.187-.547c1.583-.4 3.317.077 4.484 1.241z"/><path fill="#003865" d="m60 5h-9v7.414l-3-3-2 2-2-2-2 2-2-2-2 2-2-2-3 3v-7.414h-9c-.551 0-1 .448-1 1v18.212c.562.172 1.088.462 1.51.884l8.394 8.395c.707.705 1.096 1.645 1.096 2.645 0 .771-.234 1.514-.676 2.146l-.503.718h27.179c.551 0 1-.448 1-1v-32c0-.552-.449-1-1-1zm-27 26h-2v-14h2zm4 0h-2v-2h2zm0-4h-2v-10h2zm4 4h-2v-2h2zm0-4h-2v-10h2zm4 4h-2v-2h2zm0-4h-2v-10h2zm4 4h-2v-2h2zm0-4h-2v-10h2zm4 4h-2v-14h2z"/></svg>
